<?xml version="1.0" ?><svg id="Layer_1" style="enable-background:new 0 0 512 512;" version="1.1" viewBox="0 0 512 512" xml:space="preserve" xmlns="http://www.w3.org/2000/svg" xmlns:xlink="http://www.w3.org/1999/xlink"><style type="text/css">
	.st0{fill:#E93F33;}
</style><g><path class="st0" d="M173.9,235.5c-0.1,16.2,0,32.5,0.1,48.7c27.2,0.9,54.5,0.5,81.7,0.9c-12,60.4-94.2,80-137.6,40.5   c-44.7-34.6-42.6-110.5,3.9-142.6c32.5-25.9,78.7-19.5,111.2,2.9c12.8-11.8,24.7-24.4,36.2-37.5c-27-21.6-60.2-36.9-95.5-35.3   c-73.6-2.5-141.3,62-142.5,135.7c-4.7,60.2,34.9,119.2,90.8,140.5c55.7,21.4,127.1,6.8,162.6-43.2c23.5-31.6,28.5-72.3,25.8-110.5   C265,235.3,219.4,235.4,173.9,235.5z"/><path class="st0" d="M440.2,235.3c-0.1-13.6-0.2-27.2-0.3-40.8c-13.6,0-27.1,0-40.6,0c-0.1,13.6-0.3,27.2-0.3,40.8   c-13.6,0.1-27.2,0.1-40.8,0.3c0,13.6,0,27.1,0,40.6c13.6,0.1,27.2,0.3,40.8,0.4c0.1,13.6,0.1,27.2,0.3,40.7c13.6,0,27.1,0,40.7,0   c0.1-13.6,0.1-27.2,0.3-40.8c13.6-0.1,27.2-0.2,40.8-0.3c0-13.5,0-27.1,0-40.6C467.4,235.5,453.8,235.5,440.2,235.3z"/></g></svg>