<?xml version="1.0" encoding="UTF-8" standalone="no"?>
<!-- Created with Inkscape (http://www.inkscape.org/) -->

<svg
   xmlns:dc="http://purl.org/dc/elements/1.1/"
   xmlns:cc="http://creativecommons.org/ns#"
   xmlns:rdf="http://www.w3.org/1999/02/22-rdf-syntax-ns#"
   xmlns:svg="http://www.w3.org/2000/svg"
   xmlns="http://www.w3.org/2000/svg"
   xmlns:sodipodi="http://sodipodi.sourceforge.net/DTD/sodipodi-0.dtd"
   xmlns:inkscape="http://www.inkscape.org/namespaces/inkscape"
   width="64"
   height="64"
   viewBox="0 0 16.933333 16.933334"
   version="1.1"
   id="svg653"
   inkscape:version="0.92.2 (5c3e80d, 2017-08-06)"
   sodipodi:docname="register.svg">
  <defs
     id="defs647" />
  <sodipodi:namedview
     id="base"
     pagecolor="#ffffff"
     bordercolor="#666666"
     borderopacity="1.0"
     inkscape:pageopacity="0.0"
     inkscape:pageshadow="2"
     inkscape:zoom="2.8"
     inkscape:cx="105.51485"
     inkscape:cy="14.180181"
     inkscape:document-units="mm"
     inkscape:current-layer="layer1"
     showgrid="false"
     units="px"
     inkscape:window-width="958"
     inkscape:window-height="991"
     inkscape:window-x="952"
     inkscape:window-y="0"
     inkscape:window-maximized="0" />
  <metadata
     id="metadata650">
    <rdf:RDF>
      <cc:Work
         rdf:about="">
        <dc:format>image/svg+xml</dc:format>
        <dc:type
           rdf:resource="http://purl.org/dc/dcmitype/StillImage" />
        <dc:title></dc:title>
      </cc:Work>
    </rdf:RDF>
  </metadata>
  <g
     inkscape:label="Layer 1"
     inkscape:groupmode="layer"
     id="layer1"
     transform="translate(0,-280.06665)">
    <path
       id="path13275"
       d="m 9.7818537,280.73011 v -0.0292 H 9.2314166 c -3.1869186,0 -5.7795858,2.69709 -5.7795858,6.01204 H 3.6137636 4.0022687 5.723479 c -0.00101,0.0565 -0.00511,0.11145 -0.00511,0.16831 0,0.15821 0.1232259,0.28629 0.2752164,0.28629 0.1519905,0 0.2752215,-0.12808 0.2752215,-0.28629 0,-0.0568 0.00401,-0.11191 0.00502,-0.16831 h 2.9578407 v 5.43946 c -0.1519858,0 -0.2752168,0.12803 -0.2752168,0.28629 0,0.15821 0.123231,0.28627 0.2752168,0.28627 3.1869174,0 5.7795834,-2.69707 5.7795834,-6.01202 0,-3.12172 -2.299675,-5.69354 -5.2291463,-5.98305 z m 4.6491333,5.41049 H 12.71304 c -0.164319,-2.14579 -1.029212,-3.92865 -2.201598,-4.69519 2.092833,0.55088 3.688773,2.41189 3.919545,4.69519 z m -2.269689,0 H 9.7818596 v -4.43522 c 1.2367644,0.41556 2.2016114,2.20176 2.3794384,4.43522 z m -8.129443,0 c 0.2307718,-2.2833 1.8267115,-4.14431 3.9195442,-4.69519 -1.172386,0.76654 -2.0372784,2.5494 -2.2015963,4.69519 z m 2.2696887,0 c 0.2035108,-2.55598 1.4379959,-4.53 2.9298729,-4.53 v 4.53 z m 3.48031,0.57256 h 2.4074023 c 10e-4,0.0564 0.005,0.11145 0.005,0.16833 0,2.5715 -1.041008,4.71556 -2.4121939,5.17632 z m 1.3717423,5.05378 c 0.956783,-1.04521 1.59089,-2.84335 1.59089,-4.88545 0,-0.0568 -0.004,-0.11191 -0.0052,-0.16833 h 1.72121 c 0,2.2929 -1.37295,4.25482 -3.306971,5.05378 z"
       inkscape:connector-curvature="0"
       style="fill:#ffffff;stroke-width:0.07017451" />
    <path
       id="path13277"
       d="m 5.9287988,293.1538 v -0.333 c 0.763841,-0.31506 1.3471976,-0.9922 1.561678,-1.8206 0.2300703,-0.21613 0.3648473,-0.52703 0.3648473,-0.85162 0,-0.39027 -0.1886727,-0.74866 -0.4988324,-0.95894 -0.4192742,-0.98604 -1.3475985,-1.61762 -2.3909605,-1.61762 -1.0433569,0 -1.9716763,0.63158 -2.3909604,1.61762 -0.3101546,0.21023 -0.4988322,0.56867 -0.4988322,0.95894 0,0.32459 0.1347918,0.63549 0.3648522,0.85162 0.2144754,0.82835 0.797837,1.50549 1.5616779,1.8206 v 0.33294 c -1.1953424,0.36233 -2.1238071,1.38368 -2.3953954,2.65851 -0.018141,0.085 0.0015,0.17364 0.054021,0.24129 0.052283,0.0676 0.1311639,0.10712 0.2146158,0.10712 H 8.055562 c 0.083452,0 0.1623387,-0.0396 0.2146058,-0.10712 0.052272,-0.0676 0.072162,-0.15627 0.054026,-0.24129 -0.2715932,-1.27483 -1.2000479,-2.29618 -2.395395,-2.65845 z m -3.6887071,2.43425 c 0.3287013,-0.9665 1.1207653,-1.70764 2.0969318,-1.93274 0.1260523,-0.0292 0.215688,-0.14533 0.215688,-0.27955 v -0.75763 c 0,-0.12584 -0.078881,-0.23682 -0.1944555,-0.27373 -0.7018871,-0.2242 -1.2400925,-0.82559 -1.4044458,-1.56925 -0.014634,-0.0666 -0.051741,-0.12525 -0.104278,-0.16607 -0.1419129,-0.10934 -0.2233503,-0.27705 -0.2233503,-0.4605 0,-0.21356 0.1128834,-0.4079 0.2947051,-0.50741 0.057921,-0.0319 0.103071,-0.0837 0.1274002,-0.14679 0.3155319,-0.82001 1.0680825,-1.3498 1.9172445,-1.3498 0.8491669,0 1.6017226,0.52979 1.9172544,1.3498 0.024304,0.0632 0.06948,0.1152 0.1274003,0.14679 0.1818224,0.0995 0.2947051,0.29385 0.2947051,0.50741 0,0.18345 -0.081437,0.35119 -0.2233502,0.4605 -0.052543,0.0407 -0.089631,0.0995 -0.1042792,0.16603 -0.1643531,0.7437 -0.7025587,1.34505 -1.4044457,1.56929 -0.1155741,0.037 -0.1944557,0.14789 -0.1944557,0.27368 v 0.75768 c 0,0.13417 0.089632,0.25052 0.2156882,0.27955 0.9761665,0.2251 1.7682256,0.96624 2.0969319,1.93274 z"
       inkscape:connector-curvature="0"
       style="fill:#ffffff;fill-opacity:1;stroke-width:0.07017451" />
  </g>
</svg>
