<?xml version="1.0" ?><svg id="Layer_1" style="enable-background:new 0 0 512 512;" version="1.1" viewBox="0 0 512 512" xml:space="preserve" xmlns="http://www.w3.org/2000/svg" xmlns:xlink="http://www.w3.org/1999/xlink"><style type="text/css">
	.st0{fill:#E93F33;}
	.st1{fill:#201600;}
</style><g><path class="st0" d="M398.8,245.6H113.2c-45.4,0-82.2,36.8-82.2,82.2v66.1c0,45.4,36.8,82.2,82.2,82.2h285.6   c45.4,0,82.2-36.8,82.2-82.2v-66.1C481,282.4,444.2,245.6,398.8,245.6z M173.2,297h-26.5v131.9H121V297H94.5v-22.4h78.7V297z    M248.2,428.9h-22.8v-12.5c-4.2,4.6-8.6,8.1-13.1,10.5c-4.5,2.5-8.9,3.6-13.2,3.6c-5.3,0-9.2-1.7-11.9-5.1c-2.6-3.4-4-8.4-4-15.3   V315H206v87.4c0,2.7,0.5,4.6,1.4,5.8c1,1.2,2.6,1.8,4.7,1.8c1.6,0,3.8-0.8,6.3-2.4c2.6-1.6,4.9-3.6,7.1-6.1V315h22.8V428.9z    M330.8,405.4c0,8-1.8,14.2-5.4,18.5c-3.5,4.3-8.7,6.4-15.5,6.4c-4.5,0-8.4-0.8-11.9-2.5c-3.5-1.6-6.8-4.2-9.7-7.7v8.7h-23V274.6   h23v49.7c3.1-3.4,6.4-6.1,9.7-7.9c3.5-1.8,7-2.7,10.5-2.7c7.2,0,12.7,2.4,16.5,7.3c3.8,4.9,5.7,12,5.7,21.3V405.4z M409.8,374.7   h-43.5v21.5c0,6,0.7,10.2,2.2,12.5c1.5,2.3,4.1,3.5,7.7,3.5c3.8,0,6.4-1,7.9-2.9c1.5-2,2.3-6.3,2.3-13V391h23.4v5.8   c0,11.7-2.8,20.5-8.6,26.4c-5.7,5.9-14.2,8.8-25.5,8.8c-10.2,0-18.3-3.1-24.1-9.4c-5.8-6.2-8.8-14.8-8.8-25.8v-51.2   c0-9.8,3.2-17.9,9.7-24.2c6.4-6.2,14.7-9.3,24.9-9.3c10.4,0,18.4,2.9,24,8.6c5.6,5.8,8.4,14,8.4,24.8V374.7z"/><path class="st0" d="M376.4,332.1c-3.6,0-6.2,1-7.8,3.1c-1.6,2-2.4,5.4-2.4,10.2V357h20.1v-11.5c0-4.8-0.8-8.2-2.4-10.2   C382.4,333.2,379.8,332.1,376.4,332.1z"/><path class="st0" d="M297.9,331.8c-1.6,0-3.2,0.3-4.8,1.1c-1.6,0.7-3.1,1.9-4.7,3.5v71c1.8,1.8,3.6,3.2,5.4,4.1   c1.8,0.8,3.6,1.2,5.5,1.2c2.8,0,4.8-0.8,6.1-2.4c1.3-1.6,2-4.2,2-7.8v-58.8c0-3.9-0.8-6.8-2.4-8.8   C303.3,332.8,300.9,331.8,297.9,331.8z"/><polygon class="st1" points="150.6,206 179.4,206 179.4,135.5 213,35.9 183.7,35.9 165.9,103.9 164,103.9 145.3,35.9 116.2,35.9    150.6,138.6  "/><path class="st1" d="M252.1,209.2c11.6,0,20.8-3.1,27.5-9.2c6.6-6.1,9.9-14.5,9.9-25.3v-64.8c0-9.5-3.4-17.4-10.1-23.5   c-6.8-6-15.5-9.1-26.1-9.1c-11.6,0-20.9,2.9-27.8,8.6c-6.9,5.8-10.3,13.5-10.3,23.2v65c0,10.7,3.4,19.1,10.1,25.4   C231.9,206,240.9,209.2,252.1,209.2z M241.5,108.3c0-2.7,1-4.9,2.9-6.7c2-1.7,4.5-2.5,7.6-2.5c3.4,0,6.1,0.8,8.2,2.5   c2.1,1.7,3.1,3.9,3.1,6.7v68.4c0,3.4-1,6-3.1,7.9c-2,1.9-4.8,2.9-8.3,2.9c-3.4,0-6-0.9-7.8-2.8c-1.8-1.9-2.7-4.5-2.7-8V108.3z"/><path class="st1" d="M328.2,207.8c4.8,0,9.8-1.4,14.9-4c5.1-2.7,10.1-6.6,14.8-11.7V206h25.6V80.5h-25.6v95.2c-2.4,2.7-5,5-7.9,6.7   c-2.9,1.8-5.3,2.6-7.2,2.6c-2.4,0-4.2-0.7-5.2-2c-1.1-1.3-1.7-3.5-1.7-6.4V80.5h-25.6v104.9c0,7.5,1.5,13.1,4.5,16.8   C317.8,205.9,322.2,207.8,328.2,207.8z"/></g></svg>