<?xml version="1.0" encoding="UTF-8" standalone="no"?>
<!-- Created with Inkscape (http://www.inkscape.org/) -->

<svg
   xmlns:dc="http://purl.org/dc/elements/1.1/"
   xmlns:cc="http://creativecommons.org/ns#"
   xmlns:rdf="http://www.w3.org/1999/02/22-rdf-syntax-ns#"
   xmlns:svg="http://www.w3.org/2000/svg"
   xmlns="http://www.w3.org/2000/svg"
   xmlns:sodipodi="http://sodipodi.sourceforge.net/DTD/sodipodi-0.dtd"
   xmlns:inkscape="http://www.inkscape.org/namespaces/inkscape"
   width="64"
   height="64"
   viewBox="0 0 16.933333 16.933334"
   version="1.1"
   id="svg653"
   inkscape:version="0.92.2 (5c3e80d, 2017-08-06)"
   sodipodi:docname="phone.svg">
  <defs
     id="defs647" />
  <sodipodi:namedview
     id="base"
     pagecolor="#ffffff"
     bordercolor="#666666"
     borderopacity="1.0"
     inkscape:pageopacity="0.0"
     inkscape:pageshadow="2"
     inkscape:zoom="2.8"
     inkscape:cx="66.174914"
     inkscape:cy="41.574648"
     inkscape:document-units="mm"
     inkscape:current-layer="layer1"
     showgrid="false"
     units="px"
     inkscape:window-width="958"
     inkscape:window-height="991"
     inkscape:window-x="952"
     inkscape:window-y="0"
     inkscape:window-maximized="0" />
  <metadata
     id="metadata650">
    <rdf:RDF>
      <cc:Work
         rdf:about="">
        <dc:format>image/svg+xml</dc:format>
        <dc:type
           rdf:resource="http://purl.org/dc/dcmitype/StillImage" />
        <dc:title></dc:title>
      </cc:Work>
    </rdf:RDF>
  </metadata>
  <g
     inkscape:label="Layer 1"
     inkscape:groupmode="layer"
     id="layer1"
     transform="translate(0,-280.06665)">
    <path
       id="path9782"
       d="M 15.328156,282.06994 H 1.6284195 c -0.473402,0 -0.85842445,0.3831 -0.85842445,0.85398 v 7.71079 0.57099 2.28392 H 6.6179683 l -0.6859707,1.60059 c -0.037934,0.0881 -0.028704,0.18931 0.023988,0.2696 0.052971,0.08 0.1424664,0.12825 0.2383771,0.12825 h 4.5678805 c 0.09591,0 0.185407,-0.0482 0.238372,-0.12825 0.05269,-0.0803 0.06189,-0.18146 0.02399,-0.2696 l -0.685965,-1.60059 h 5.847973 v -2.28392 -0.57099 -7.71079 c 0,-0.47088 -0.385023,-0.85398 -0.858424,-0.85398 z M 10.32925,294.91707 H 6.6273251 l 0.6116896,-1.42745 h 2.4785462 z m 5.286344,-1.99844 H 9.9057512 7.0508243 1.3409814 V 291.2057 H 15.615594 Z M 1.3409814,290.63471 v -7.71079 c 0,-0.15615 0.128804,-0.28299 0.2874381,-0.28299 H 15.328146 c 0.158645,0 0.287448,0.12684 0.287448,0.28299 v 7.71079 z"
       inkscape:connector-curvature="0"
       style="opacity:0.9;fill:#ffffff;stroke-width:0.07137308" />
    <path
       id="path9784"
       d="m 8.4782878,292.63315 c 0.314768,0 0.5709864,-0.2562 0.5709864,-0.57099 0,-0.31478 -0.2562184,-0.57099 -0.5709864,-0.57099 -0.314768,0 -0.5709864,0.25621 -0.5709864,0.57099 0,0.31479 0.2562184,0.57099 0.5709864,0.57099 z"
       inkscape:connector-curvature="0"
       style="opacity:0.9;fill:#ffffff;fill-opacity:1;stroke-width:0.07137308" />
    <path
       id="path9786"
       d="m 10.065775,285.76483 c -0.097098,-0.81265 -0.7895699,-1.44521 -1.6278659,-1.44521 -0.838296,0 -1.5307683,0.63256 -1.6278708,1.44521 -0.2787507,0.0932 -0.4815113,0.35429 -0.4815113,0.66481 v 2.10804 c 0,0.38816 0.3147173,0.70381 0.7017581,0.70381 h 2.8152531 c 0.3870358,0 0.7017478,-0.31565 0.7017478,-0.70381 v -2.10804 c 0,-0.31052 -0.202771,-0.57165 -0.481511,-0.66481 z m -1.6278659,-0.97651 c 0.5658846,0 1.0392867,0.40333 1.1481853,0.93751 H 7.2897239 c 0.1088986,-0.53418 0.5823007,-0.93751 1.1481852,-0.93751 z m 1.6406309,3.74936 c 0,0.12952 -0.1046086,0.23506 -0.2330068,0.23506 H 7.0302851 c -0.1284034,0 -0.2330065,-0.10554 -0.2330065,-0.23506 v -2.10804 c 0,-0.12953 0.1046031,-0.23506 0.2330065,-0.23506 h 2.8152531 c 0.1283932,0 0.2330018,0.10553 0.2330018,0.23506 z"
       inkscape:connector-curvature="0"
       style="opacity:0.9;fill:#ffffff;fill-opacity:1;stroke-width:0.05859389" />
    <g
       id="g5717"
       transform="matrix(2.9770949,0,0,2.9770949,-503.71367,221.16891)"
       style="fill:#ffffff;fill-opacity:1">
      <path
         id="XMLID_6_"
         d="m 170.13286,22.079215 c 0.0406,0.567655 1.45284,2.32178 1.99776,2.482575 0.25581,0.07553 0.52542,0.113693 0.79016,0.08121 0.18354,-0.02274 0.40605,-0.09826 0.57659,-0.220077 l -0.93716,-1.153175 c -0.052,0.04385 -0.091,0.100699 -0.10557,0.168103 -0.0211,0.09502 -0.002,0.215205 -0.0812,0.272864 -0.0568,0.04142 -0.13562,0.02599 -0.20302,0.0057 -0.33052,-0.1007 -1.1751,-1.150739 -1.20271,-1.495067 -0.006,-0.06984 -0.004,-0.150238 0.0487,-0.197339 0.0731,-0.06497 0.18597,-0.0203 0.28342,-0.02112 0.0658,0 0.1275,-0.02436 0.18029,-0.06253 l -0.93554,-1.151551 c -0.1478,0.139681 -0.2623,0.332959 -0.32158,0.501063 -0.0893,0.251749 -0.10883,0.523801 -0.0901,0.789356 z"
         inkscape:connector-curvature="0"
         style="fill:#ffffff;fill-opacity:1;stroke-width:0.00812095" />
      <path
         id="XMLID_5_"
         d="m 171.57758,21.188347 c -0.0682,-0.185158 -0.16161,-0.370315 -0.32078,-0.488069 -0.22414,-0.165667 -0.56148,-0.05988 -0.75302,0.129333 l 0.92713,1.138346 c 0.10819,-0.03959 0.22575,-0.212382 0.21407,-0.28342 0.0357,-0.165667 -0.009,-0.337831 -0.0674,-0.49619 z"
         inkscape:connector-curvature="0"
         sodipodi:nodetypes="cccccc"
         style="fill:#ffffff;fill-opacity:1;stroke-width:0.00812095" />
      <path
         id="XMLID_4_"
         d="m 172.8412,23.169859 c -0.0707,-0.01495 -0.28449,0.05552 -0.32173,0.140632 l 0.92988,1.146043 c 0.19627,-0.09304 0.39749,-0.419298 0.26891,-0.697094 -0.0812,-0.180285 -0.242,-0.311032 -0.40848,-0.417417 -0.14131,-0.09096 -0.30332,-0.13721 -0.46858,-0.172164 z"
         inkscape:connector-curvature="0"
         sodipodi:nodetypes="sccccs"
         style="fill:#ffffff;fill-opacity:1;stroke-width:0.00812095" />
    </g>
  </g>
</svg>
